<?xml version="1.0" encoding="UTF-8"?>
<svg id="New" xmlns="http://www.w3.org/2000/svg" viewBox="0 0 324.94 310.02">
  <defs>
    <style>
      .cls-1 {
        fill: #002e5b;
      }
    </style>
  </defs>
  <path class="cls-1" d="M250.26,62.4c-7.01,0-16.76,3.65-32.6,12.19l-1.56.84c-1.57.84-2.65,2.32-2.97,4.07-.32,1.75.17,3.52,1.34,4.86l22.02,25.2v16.25l11.43-16.41c5.19-7.76,21.32-33.8,11.52-43.6-2.26-2.26-5.35-3.41-9.18-3.41ZM241.57,97.75l-13.55-15.5c14.17-7.26,19.98-8.37,22.19-8.37.42,0,.7.04.87.08.67,2.59-3.15,12.97-9.51,23.79ZM190.61,135.91c-7.65,4.54-12.24,11.73-12.35,19.29,0,.08-.01.15-.02.23-.62,9.65.97,25.33,1.72,31.9-3.39-.12-7.44-.11-12.04-.08-1.74,0-3.54.01-5.39.01s-3.66,0-5.39-.01c-4.57-.02-8.59-.03-11.97.09.24-2.14.57-5.19.88-8.65h-.07c.66-7.39,1.26-16.7.84-23.25,0-.08-.01-.15-.02-.23-.11-7.55-4.7-14.74-12.35-19.29-9.65-5.72-21.73-5.95-31.53-.6-.34.19-.48.62-.3.97,7.18,14.01,22.2,19.23,33.08,18.14.33-.03.7-.04,1.1-.02.68,17.35-3.03,35.91-3.06,36.1l-.02.1v.1c.07.75.36,1.46.78,2.11.64,1.75,1.86,3.42,3.43,5,.15.15.31.31.47.46.23.21.46.43.7.64.4.35.81.69,1.24,1.02.14.11.29.21.43.32.39.29.79.58,1.2.86.14.1.29.19.43.29,1.14.75,2.36,1.45,3.62,2.1.02,0,.03.02.05.03h0c2.17,1.11,4.46,2.06,6.74,2.8-.02.18-.05.35-.05.54,0,6.31-9.48,10.08-18.64,10.08-4.18,0-8.06-.81-10.65-2.21-2.99-1.62-2.99-3.26-2.99-3.88v-18.85c0-2.99-2.43-5.41-5.41-5.41s-5.41,2.43-5.41,5.41v18.85c0,5.61,3.07,10.37,8.65,13.39,1.62.88,3.47,1.6,5.47,2.17v5.83c0,8.17,9.73,15.45,17.4,15.45h42.7c7.67,0,17.4-7.27,17.4-15.45v-5.83c2-.56,3.84-1.28,5.47-2.17,5.58-3.03,8.65-7.78,8.65-13.39v-18.85c0-2.99-2.43-5.41-5.41-5.41s-5.41,2.43-5.41,5.41v18.85c0,.62,0,2.26-2.99,3.88-2.59,1.41-6.47,2.21-10.65,2.21-6.27,0-12.68-1.77-16.11-4.9h.01c-1.55-1.44-2.48-3.16-2.48-5.14,0-.19-.04-.37-.06-.56,7.96-2.57,16.18-7.68,18.32-13.49.42-.65.71-1.36.77-2.11v-.1s-.01-.1-.01-.1c-.02-.1-.98-4.9-1.83-11.86h-.06c-.84-6.81-1.57-15.69-1.24-24.28.39-.01.77,0,1.1.02,10.89,1.09,25.9-4.12,33.08-18.14.18-.35.05-.78-.3-.97-9.8-5.35-21.88-5.12-31.53.6ZM190.65,227.75v4.45c0,4.37-4.03,4.84-6.77,4.84h-42.7c-4.75,0-6.77-1.77-6.77-4.81v-4.48c11.3-.08,24.4-4.78,28.12-14.97,3.73,10.19,16.82,14.89,28.12,14.97ZM88.29,139.67v-.24s-11.27-16.18-11.27-16.18v2.46c0,29.26.5,45.45,1.61,50.94,1.39,6.92,14.36,21.55,23.87,31.54v-16.21c0-.13.02-.25.02-.38-7.28-8.23-12.45-14.98-12.89-17.16-.74-3.69-1.19-15.39-1.34-34.77ZM88.38,109.57l22.02-25.2c1.17-1.34,1.66-3.11,1.34-4.86-.32-1.75-1.41-3.24-2.98-4.07l-1.55-.84c-15.84-8.55-25.59-12.19-32.6-12.19-3.83,0-6.92,1.15-9.18,3.41-9.8,9.8,6.33,35.84,11.51,43.59l11.44,16.42v-16.25ZM73.79,73.96c4.69-.32,15.09,3.55,23.06,8.29l-13.55,15.5c-6.37-10.82-10.18-21.2-9.51-23.79ZM236.77,139.43v.24c-.14,19.38-.59,31.08-1.34,34.77-.44,2.18-5.62,8.94-12.89,17.16,0,.13.02.25.02.38v16.21c9.51-9.99,22.47-24.62,23.87-31.54,1.11-5.49,1.62-21.68,1.61-50.94v-2.46s-11.27,16.18-11.27,16.18ZM120.16,80.79c11.96-3.13,28.99-5.53,42.4-5.53h0c13.37,0,30.35,2.39,42.31,5.51,0-.86.06-1.72.22-2.59.55-3.02,2.03-5.7,4.17-7.77-14.48-4.01-34.05-6.36-46.7-6.36h0c-12.66,0-32.29,2.36-46.77,6.38,2.13,2.07,3.6,4.75,4.15,7.75.16.87.22,1.75.22,2.61Z"/>
</svg>