<?xml version="1.0" encoding="UTF-8"?>
<svg id="New" xmlns="http://www.w3.org/2000/svg" viewBox="0 0 924.68 310.02">
  <defs>
    <style>
      .cls-1 {
        fill: #fff;
      }
    </style>
  </defs>
  <path class="cls-1" d="M404.02,128.93c-6.02-2.51-8.96-7.08-8.96-13.58,0-8.75,0-27.09,0-33.92h-15.06v36.11c0,6.55,2.36,11.86,6.5,16.87,4.73,5.73,10.85,9.23,18.26,10.4.02-.33-.02-10.12,0-14.71,0-.6-.15-.92-.74-1.16ZM422.71,205.18c0,6.5-2.93,11.07-8.96,13.58-.59.25-.75.56-.74,1.16.02,4.59,0,14.38,0,14.71,7.4-1.18,13.52-4.67,18.26-10.4,4.14-5.01,6.5-10.32,6.5-16.87v-36.11h-15.06c0,6.83,0,25.17,0,33.92ZM342.28,123.24c8.42-3.39,14.36-11.85,13.11-22.45-1.21-10.28-9.22-19.37-20.82-19.37s-10.92-.07-11.36-.07v15.2c.45,0,7.31-.04,10.36.04,3.67.09,6.58,3.07,6.79,6.83.2,3.56-2.55,6.96-6.17,7.28-2.79.24-10,.18-10.83.18-.04.23-.1,7.02-.07,10.28,0,.38,10.05,15,14.85,21.94.34.49.7.66,1.28.65,5.26-.02,10.52-.01,15.78-.01.19,0,.39-.02.74-.04-4.8-6.78-9.5-13.42-14.27-20.16.3-.15.45-.24.61-.3ZM422.71,115.35c0,6.5-2.93,11.07-8.96,13.58-.59.25-.75.56-.74,1.16.02,4.59,0,14.38,0,14.71,7.4-1.18,13.52-4.67,18.26-10.4,4.14-5.01,6.5-10.32,6.5-16.87v-36.11h-15.06c0,6.83,0,25.17,0,33.92ZM478.48,121.06c0-.36-12.88-14.98-15.07-17.18v39.81h15.09c0-7.62,0-15.13-.02-22.63ZM463.42,178.68c-.04,15.96-.03,31.93,0,47.89,0,3.75,2.63,7,6.34,7.42,2.93.33,5.92.07,8.94.07v-62.91c-2.67,0-5.22-.04-7.78,0-4.14.07-7.49,3.37-7.5,7.52ZM661.08,144.81c7.4-1.18,13.52-4.67,18.26-10.4,4.14-5.01,6.5-10.32,6.5-16.87v-36.11h-15.06c0,6.83,0,25.17,0,33.92,0,6.5-2.93,11.07-8.96,13.58-.59.25-.75.56-.74,1.16.02,4.59,0,14.38,0,14.71ZM603.04,81.42h-25.95v15.06h25.95v-15.06ZM600.52,120.13v-15.07h-23.4v15.07h23.4ZM514.25,196.49c3.46-9.34-2.16-20.69-11.64-24.11-5.28-1.9-10.69-.96-16.08-1.27v15.4c3.12,0,6.14-.03,9.15,0,2.4.03,4.24,1.91,4.23,4.24-.02,2.31-1.9,4.18-4.29,4.21-2.6.03-9.11,0-9.11,0v15.37c3.63,0,7.18-.01,10.72,0,2.47.01,4.4,1.89,4.4,4.23s-1.92,4.21-4.4,4.23c-3.14.02-10.72,0-10.72,0v15.22c4.41,0,8.74-.03,13.07-.03,11.39,0,17.31-7.49,17.51-16.43.16-7.28-.99-10.09-5.87-15.82.89-1.52,2.29-3.27,3.03-5.27ZM341.01,174.11c-5.46-3.06-11.32-3.18-17.4-2.88v15.3c2.05,0,4.03-.04,6,0,3.47.08,6.63,2.35,7.78,5.54,1.17,3.24.28,6.76-2.29,9.16-1.76,1.64-3.85,2.3-6.22,2.25-1.76-.03-3.52,0-5.26,0v15.34c2.07,0,4.05.02,6.03,0,7.69-.08,13.9-3.29,18.62-9.24,8.97-11.31,5.39-28.38-7.26-35.47ZM315.48,81.42c-2.78,0-5.47.03-8.17.03-5.9,0-6.94,4.45-6.94,7.59v54.7h15.1v-62.33ZM307.91,171.15c-5.19,0-7.4,3.15-7.4,8.31,0,17.78,0,54.69,0,54.69h15.27v-63.01c-2.37,0-5.6,0-7.87,0ZM404.02,218.76c-6.02-2.51-8.96-7.08-8.96-13.58,0-8.75,0-27.09,0-33.92h-15.06v36.11c0,6.55,2.36,11.86,6.5,16.87,4.73,5.73,10.85,9.23,18.26,10.4.02-.33-.02-10.12,0-14.71,0-.6-.15-.92-.74-1.16ZM775.43,205.18c0,6.5-2.93,11.07-8.96,13.58-.59.25-.75.56-.74,1.16.02,4.59,0,14.38,0,14.71,7.4-1.18,13.52-4.67,18.26-10.4,4.14-5.01,6.5-10.32,6.5-16.87v-36.11h-15.06c0,6.83,0,25.17,0,33.92ZM708.36,89.04v54.7h15.1v-62.33c-2.78,0-5.47.03-8.17.03-5.9,0-6.93,4.45-6.93,7.59ZM756.74,218.76c-6.02-2.51-8.96-7.08-8.96-13.58,0-8.75,0-27.09,0-33.92h-15.06v36.11c0,6.55,2.36,11.86,6.5,16.87,4.73,5.73,10.85,9.23,18.26,10.4.02-.33-.01-10.12,0-14.71,0-.6-.15-.92-.74-1.16ZM813.56,179.75c0,11.26-.02,42.2,0,46.41.02,4.75,3.27,7.98,8,8,1.75,0,7.14,0,7.14,0v-62.35c-2.69,0-5.28,0-7.86,0-4.67,0-7.27,4-7.27,7.92ZM519.53,80.56c-2.93.35-4.83,2.39-6.51,4.35-5.77,6.77-11.59,13.5-17.38,20.24-.09.1-.2.18-.36.34-1.54-1.77-3.04-3.51-4.54-5.25-4.87-5.65-9.72-11.31-14.59-16.96-2.41-2.41-5.12-3.33-8.68-1.99-5.87,3.29-4.38,9.41-1.14,13.45.63.78,27.55,32.24,28.99,33.91,5.57-6.49,11.07-12.9,16.57-19.3l.24,34.35h15.14c.01-.29,0-37.25,0-55.49,0-2.3-.89-7.63-7.73-7.63ZM836.38,219.1v15.02h25.96v-15.02h-25.96ZM862.32,171.84h-25.95v15.06h25.95v-15.06ZM859.8,210.55v-15.07h-23.4v15.07h23.4ZM750.25,123.24c8.42-3.39,14.36-11.85,13.11-22.45-1.21-10.28-9.22-19.37-20.82-19.37s-10.92-.07-11.36-.07v15.2c.45,0,7.31-.04,10.36.04,3.67.09,6.58,3.07,6.79,6.83.2,3.56-2.55,6.96-6.17,7.28-2.78.24-10,.18-10.83.18-.04.23-.1,7.02-.07,10.28,0,.38,10.05,15,14.84,21.94.34.49.7.66,1.28.65,5.26-.02,10.52-.01,15.78-.01.19,0,.38-.02.74-.04-4.8-6.78-9.5-13.42-14.27-20.16.3-.15.45-.24.61-.3ZM704.46,221.66c5.12-7.07,7.29-15.02,5.98-23.62-1.98-13.02-9.5-21.73-21.77-26.34-1.9-.72-3.96-1.04-5.94-1.54h-.75v15.48c.37.13.64.24.91.31,10.54,3.08,15.52,14.56,10.63,24.4-.43.85-.91,1.07-1.8,1.06-4.63-.04-9.26-.02-13.9-.02h-2.99c.29.43,4.4,5.14,6.06,7.41,1.23,1.67,1.14,2.76,1.14,3.98,0,4.14-.03,11.96-.03,11.96,3.14-.35,6-1.07,8.74-2.26.26-.11.49-.18.69-.19l1.27,1.24.65.66h19.99c-3-3.55-6.69-7.92-8.79-10.36-.66-.76-.75-1.28-.1-2.18ZM569.42,143.74v-62.35c-2.69,0-5.28.01-7.86.01-4.67,0-7.27,4-7.27,7.92,0,11.26-.02,42.2,0,46.41.02,4.75,3.27,7.98,8,8,1.75,0,7.14,0,7.14,0ZM610.26,225.72c0,4.19,1.82,8.09,6.45,8.09h8.81v-62.9h-15.26v54.81ZM561.57,234.1h25.45v-15.22h-25.45v15.22ZM652.83,130.1c0-.6-.15-.92-.74-1.16-6.02-2.51-8.96-7.08-8.96-13.58,0-8.75,0-27.09,0-33.92h-15.06v36.11c0,6.55,2.36,11.86,6.5,16.87,4.73,5.73,10.85,9.23,18.26,10.4.02-.33-.01-10.12,0-14.71ZM577.1,143.69h25.96v-15.02h-25.96v15.02ZM673.35,218.99c-12.14-3.53-16.39-18.8-7.86-28.04,2.42-2.62,5.34-4.36,8.79-5.24v-15.55s-1.36.21-1.8.28c-16.55,2.83-28.32,18.33-26.7,35.18,1.16,12.08,9.08,22.53,20.25,27.03,1.88.71,4.85,1.64,8.3,2.08,0-4.68,0-10,.03-14.64,0-.78-.39-.91-1.02-1.09ZM538.44,226c0,4.19,1.82,8.09,6.45,8.09h8.81v-62.9h-15.26v54.81ZM250.26,62.4c-7.01,0-16.76,3.65-32.6,12.19l-1.56.84c-1.57.84-2.65,2.32-2.97,4.07-.32,1.75.17,3.52,1.34,4.86l22.02,25.2v16.25l11.43-16.41c5.19-7.76,21.32-33.8,11.52-43.6-2.26-2.26-5.35-3.41-9.18-3.41ZM241.57,97.75l-13.55-15.5c14.17-7.26,19.98-8.37,22.19-8.37.42,0,.7.04.87.08.67,2.59-3.15,12.97-9.51,23.79ZM190.61,135.91c-7.65,4.54-12.24,11.73-12.35,19.29,0,.08-.01.15-.02.23-.62,9.65.97,25.33,1.72,31.9-3.39-.12-7.44-.11-12.04-.08-1.74,0-3.54.01-5.39.01s-3.66,0-5.39-.01c-4.57-.02-8.59-.03-11.97.09.24-2.14.57-5.19.88-8.65h-.07c.66-7.39,1.26-16.7.84-23.25,0-.08-.01-.15-.02-.23-.11-7.55-4.7-14.74-12.35-19.29-9.65-5.72-21.73-5.95-31.53-.6-.34.19-.48.62-.3.97,7.18,14.01,22.2,19.23,33.08,18.14.33-.03.7-.04,1.1-.02.68,17.35-3.03,35.91-3.06,36.1l-.02.1v.1c.07.75.36,1.46.78,2.11.64,1.75,1.86,3.42,3.43,5,.15.15.31.31.47.46.23.21.46.43.7.64.4.35.81.69,1.24,1.02.14.11.29.21.43.32.39.29.79.58,1.2.86.14.1.29.19.43.29,1.14.75,2.36,1.45,3.62,2.1.02,0,.03.02.05.03h0c2.17,1.11,4.46,2.06,6.74,2.8-.02.18-.05.35-.05.54,0,6.31-9.48,10.08-18.64,10.08-4.18,0-8.06-.81-10.65-2.21-2.99-1.62-2.99-3.26-2.99-3.88v-18.85c0-2.99-2.43-5.41-5.41-5.41s-5.41,2.43-5.41,5.41v18.85c0,5.61,3.07,10.37,8.65,13.39,1.62.88,3.47,1.6,5.47,2.17v5.83c0,8.17,9.73,15.45,17.4,15.45h42.7c7.67,0,17.4-7.27,17.4-15.45v-5.83c2-.56,3.84-1.28,5.47-2.17,5.58-3.03,8.65-7.78,8.65-13.39v-18.85c0-2.99-2.43-5.41-5.41-5.41s-5.41,2.43-5.41,5.41v18.85c0,.62,0,2.26-2.99,3.88-2.59,1.41-6.47,2.21-10.65,2.21-6.27,0-12.68-1.77-16.11-4.9h.01c-1.55-1.44-2.48-3.16-2.48-5.14,0-.19-.04-.37-.06-.56,7.96-2.57,16.18-7.68,18.32-13.49.42-.65.71-1.36.77-2.11v-.1s-.01-.1-.01-.1c-.02-.1-.98-4.9-1.83-11.86h-.06c-.84-6.81-1.57-15.69-1.24-24.28.39-.01.77,0,1.1.02,10.89,1.09,25.9-4.12,33.08-18.14.18-.35.05-.78-.3-.97-9.8-5.35-21.88-5.12-31.53.6ZM190.65,227.75v4.45c0,4.37-4.03,4.84-6.77,4.84h-42.7c-4.75,0-6.77-1.77-6.77-4.81v-4.48c11.3-.08,24.4-4.78,28.12-14.97,3.73,10.19,16.82,14.89,28.12,14.97ZM88.29,139.67v-.24s-11.27-16.18-11.27-16.18v2.46c0,29.26.5,45.45,1.61,50.94,1.39,6.92,14.36,21.55,23.87,31.54v-16.21c0-.13.02-.25.02-.38-7.28-8.23-12.45-14.98-12.89-17.16-.74-3.69-1.19-15.39-1.34-34.77ZM88.38,109.57l22.02-25.2c1.17-1.34,1.66-3.11,1.34-4.86-.32-1.75-1.41-3.24-2.98-4.07l-1.55-.84c-15.84-8.55-25.59-12.19-32.6-12.19-3.83,0-6.92,1.15-9.18,3.41-9.8,9.8,6.33,35.84,11.51,43.59l11.44,16.42v-16.25ZM73.79,73.96c4.69-.32,15.09,3.55,23.06,8.29l-13.55,15.5c-6.37-10.82-10.18-21.2-9.51-23.79ZM236.77,139.43v.24c-.14,19.38-.59,31.08-1.34,34.77-.44,2.18-5.62,8.94-12.89,17.16,0,.13.02.25.02.38v16.21c9.51-9.99,22.47-24.62,23.87-31.54,1.11-5.49,1.62-21.68,1.61-50.94v-2.46s-11.27,16.18-11.27,16.18ZM120.16,80.79c11.96-3.13,28.99-5.53,42.4-5.53h0c13.37,0,30.35,2.39,42.31,5.51,0-.86.06-1.72.22-2.59.55-3.02,2.03-5.7,4.17-7.77-14.48-4.01-34.05-6.36-46.7-6.36h0c-12.66,0-32.29,2.36-46.77,6.38,2.13,2.07,3.6,4.75,4.15,7.75.16.87.22,1.75.22,2.61Z"/>
</svg>